<?xml version="1.0" standalone="no"?>
<!DOCTYPE svg PUBLIC "-//W3C//DTD SVG 20010904//EN"
 "http://www.w3.org/TR/2001/REC-SVG-20010904/DTD/svg10.dtd">
<svg version="1.0" xmlns="http://www.w3.org/2000/svg"
 width="700.000000pt" height="700.000000pt" viewBox="0 0 700.000000 700.000000"
 preserveAspectRatio="xMidYMid meet">
<metadata>
Created by potrace 1.14, written by Peter Selinger 2001-2017
</metadata>
<g transform="translate(0.000000,700.000000) scale(0.100000,-0.100000)"
fill="#000000" stroke="none">
<path d="M3440 6720 c-93 -19 -153 -66 -232 -184 -55 -80 -162 -188 -216 -215
-60 -30 -176 -59 -253 -62 -138 -5 -256 -63 -343 -166 l-26 -31 -68 67 c-124
124 -277 167 -450 126 -64 -15 -166 -62 -203 -93 -147 -122 -167 -165 -273
-585 -45 -175 -86 -306 -109 -350 -62 -114 -107 -153 -262 -228 -100 -48 -130
-67 -171 -112 -62 -69 -65 -73 -91 -127 -35 -74 -63 -183 -66 -261 -9 -208 58
-329 273 -490 96 -72 124 -98 164 -151 29 -39 54 -117 49 -158 -1 -14 -5 -95
-7 -180 -3 -85 -9 -195 -12 -245 -11 -147 -11 -237 1 -295 33 -158 160 -299
309 -345 105 -32 122 -38 166 -57 81 -36 224 -110 266 -139 61 -41 89 -80 114
-153 26 -80 32 -115 45 -269 13 -169 17 -206 25 -267 41 -287 130 -388 455
-513 192 -73 296 -141 335 -218 17 -31 19 -51 15 -106 -18 -226 -22 -608 -6
-627 9 -10 97 -13 478 -11 258 1 471 3 474 3 6 2 10 20 24 117 4 22 13 67 21
100 96 389 252 589 553 711 47 19 95 39 106 44 185 82 240 114 291 168 86 91
127 233 149 517 9 120 15 179 20 205 2 14 7 41 9 60 12 81 45 158 86 199 37
36 145 101 239 143 36 16 84 37 106 47 22 10 64 26 93 36 85 27 142 64 212
135 131 132 149 211 126 555 -3 50 -8 170 -11 267 -6 175 -6 178 20 230 33 70
63 101 193 202 122 95 190 166 221 229 85 176 53 439 -73 601 -49 63 -84 94
-151 131 -169 93 -276 193 -343 323 -55 105 -78 179 -118 372 -55 269 -89 348
-193 450 -26 25 -78 62 -116 82 -213 111 -430 85 -586 -72 l-58 -57 -38 39
c-85 87 -186 133 -314 143 -221 17 -329 76 -450 245 -93 129 -119 157 -177
188 -61 33 -155 46 -222 32z"/>
</g>
</svg>
