<?xml version="1.0" encoding="utf-8"?>
<!-- Svg Vector Icons : http://www.onlinewebfonts.com/icon -->
<!DOCTYPE svg PUBLIC "-//W3C//DTD SVG 1.1//EN" "http://www.w3.org/Graphics/SVG/1.1/DTD/svg11.dtd">
<svg version="1.1" xmlns="http://www.w3.org/2000/svg" xmlns:xlink="http://www.w3.org/1999/xlink" x="0px" y="0px" viewBox="0 0 256 256" enable-background="new 0 0 256 256" xml:space="preserve">
<metadata> Svg Vector Icons : http://www.onlinewebfonts.com/icon </metadata>
<g> <path fill="#679a38" d="M157.1,27.3c-20.1-0.6-15-17.3-28.8-17.3c-13.8,0-8.6,16.7-28.8,17.3c-16.7,0.6-23,28.8-23,28.8l51.8,132.4 L180.1,56C180.1,56,173.8,27.8,157.1,27.3L157.1,27.3z"/> <path fill="#87bb4c" d="M105.3,246c-2.3-13.2,6.3-24.8-5.2-31.7c-5.8-3.5-12.7-4.6-17.8-8.6c-8.6-5.8-6.3-21.3-8.6-31.7 c-0.6-1.7-1.2-4-2.3-5.2c-2.3-2.9-12.7-7.5-16.1-8.6c-6.9-1.2-11.5-6.3-13.2-12.1c-1.7-6.3,0.6-13.2,0-19.6 c0-8.1,2.3-10.4-3.5-16.1c-4-3.5-8.6-5.8-11.5-10.4c-5.2-8.1-1.7-23,6.9-27.6c4.6-2.3,10.4-2.9,13.8-13.2 c2.9-9.2,2.9-12.1,5.8-21.3c2.3-7.5,9.8-12.7,17.3-13.2c7.5-0.6,15,4,17.3,11.5c3.5,10.4,1.7,9.8,5.8,17.3 c4.6,8.6,22.4,10.9,23,28.8c0,6.3-8.6,15.5-6.3,20.7c1.2,2.3,3.5,4,5.8,6.3c5.8,5.8,8.6,14.4,7.5,22.4c-0.6,4.6-2.9,9.2-3.5,14.4 c-0.6,10.4,7.5,18.4,13.8,27.1c15,20.1,5.8,35.7,5.8,70.2C139.8,246,105.3,246,105.3,246L105.3,246z"/> <path fill="#87bb4c" d="M139.8,246c2.3-13.2,5.2-24.8,16.7-31.7c5.8-3.5,12.7-4.6,17.8-8.6c8.6-5.8,6.3-21.3,8.6-31.7 c0.6-1.7,1.2-4,2.3-5.2c2.3-2.9,12.7-7.5,16.1-8.6c5.8-1.7,10.9-6.3,12.7-12.1c1.7-6.3-0.6-13.2,0-19.6c0-8.1-2.3-10.4,3.5-16.1 c4-3.5,8.6-5.8,11.5-10.4c5.2-8.1,1.7-23-6.9-27.6c-4.6-2.3-10.4-5.8-13.8-13.2c-4-8.6-2.9-12.1-5.8-21.3 c-2.3-7.5-9.8-12.7-17.3-13.2c-7.5-0.6-15,4-17.3,11.5c-3.5,10.4-1.7,9.8-5.8,17.3c-4.6,8.6-22.4,10.9-23,28.8 c0,6.3,8.6,15.5,6.3,20.7c-1.2,2.3-3.5,4-5.8,6.3c-5.8,5.8-8.6,14.4-7.5,22.4c0.6,4.6,2.9,9.2,3.5,14.4 c0.6,10.4-7.5,18.4-13.8,27.1c-15,20.1-17.3,35.7-17.3,70.2C105.3,246,139.8,246,139.8,246L139.8,246z"/> <path fill="#548736" d="M157.1,27.3C141,26.7,141,15.8,134.6,11.7c5.2,26.5,21.9,24.2,20.7,32.8c-0.6,2.3-0.6,3.5-2.3,6.3 c-0.6,0.6-3.5,2.9-5.2,4c-6.9,4.6-18.4,12.7-19,29.9l0,0c-0.6-17.3-12.1-24.8-19-29.9c-1.7-1.2-4.6-2.9-5.2-4 c-1.7-2.9-2.3-3.5-2.3-6.3c-0.6-9.2,14.4-6.3,20.7-32.8c-7.5,4-7.5,15-23.6,15.5c-5.8,0-9.8,3.5-13.2,7.5c0.6,1.2,1.2,2.9,1.7,4 c3.5,10.4,1.7,9.8,5.8,17.3c4.6,8.6,22.4,10.9,23,28.8c0,6.3-8.6,15.5-6.3,20.7c1.2,2.3,3.5,4,5.8,6.3c5.8,5.8,8.6,14.4,7.5,22.4 c-0.6,4.6-2.9,9.2-3.5,14.4c0,3.5,0.6,6.3,1.7,9.2c-19.6,20.1-16.7,61.6-16.1,64.5c1.2-19.6,5.8-31.7,16.7-46.6 c1.7-2.3,4-4.6,5.8-7.5c4.6-5.8,8.6-12.1,8.1-19.6c0-5.2-2.3-9.8-3.5-14.4c-1.2-8.1,1.2-16.7,7.5-22.4c1.7-1.7,4.6-3.5,5.8-6.3 c2.3-5.8-6.3-15-6.3-20.7c0.6-17.8,18.4-20.1,23-28.8c4-7.5,2.3-7.5,5.8-17.3c0.6-1.2,1.2-2.9,1.7-4 C166.9,30.7,162.8,27.3,157.1,27.3z M132.3,103.8c-1.7,1.7-2.9,2.9-4,4.6c-1.2-1.7-2.9-3.5-4-4.6l-1.7-1.7c0.6-1.2,1.2-1.7,1.2-2.9 c2.3-4,4.6-8.6,4.6-13.8c0,5.2,2.3,9.8,4.6,13.8c0.6,0.6,1.2,1.7,1.2,2.9L132.3,103.8L132.3,103.8z"/> <path fill="#d9eac6" d="M105.8,198.8c-0.6-1.2-1.2-1.7-1.7-2.9c-2.3-4.6-5.2-9.2-8.1-13.8c-2.9-4.6-5.8-9.8-8.6-15 c-2.9-5.2-5.8-10.4-8.1-15.5c-2.3-5.2-5.2-10.4-6.9-15.5c-2.3-5.2-3.5-10.4-4.6-15c-1.2-4.6-1.7-9.8-2.3-13.8 C65,102.7,65,98.6,65,95.2c-0.6-3.5,0.6-6.3,0.6-9.2c0.6-5.2,0.6-8.1,0.6-8.1s0,2.9,0.6,8.1c0,2.3,0,5.8,0.6,8.6 c0.6,3.5,1.2,7.5,2.3,11.5c1.2,4,2.3,8.6,4,13.2c1.7,4.6,3.5,9.2,6.3,13.8c2.3,4.6,5.2,9.2,8.1,13.8c2.9,4.6,6.3,9.2,9.8,13.8 c3.5,4.6,6.9,9.2,10.4,13.2c1.2,1.2,1.7,2.3,2.9,3.5c-0.6,2.3-1.7,5.2-2.3,7.5v2.3c-0.6,1.2-0.6,2.9-0.6,4c0,1.7-0.6,3.5-0.6,5.2 C106.4,197.1,106.4,198.2,105.8,198.8z M134,246c0,0,0-2.9-0.6-8.1c-0.6-2.9,0-4.6,0.6-7.5c0-2.3,0.6-5.8,1.7-9.8 c0.6-1.7,1.2-4,1.7-5.8c0.6-1.7,1.2-4,2.3-6.3c1.7-4,4-8.6,6.3-13.2c2.3-4.6,5.2-9.2,8.1-13.8c2.9-4.6,5.8-9.8,8.6-15 c2.9-5.2,5.8-10.4,8.1-15.5c2.3-5.2,5.2-10.4,6.9-15.5c2.3-5.2,3.5-10.4,4.6-15c1.2-4.6,1.7-9.8,2.3-13.8c0.6-4.6,0.6-8.1,0.6-12.1 c0.6-3.5-0.6-6.3-0.6-9.2c-0.6-5.2-0.6-8.1-0.6-8.1s0,2.9-0.6,8.1c0,2.3,0,5.8-0.6,8.6c-0.6,3.5-1.2,7.5-2.3,11.5 c-1.2,4-2.3,8.6-4,13.2s-3.5,9.2-6.3,13.8c-2.3,4.6-5.2,9.2-8.1,13.8c-2.9,4.6-6.3,9.2-9.8,13.8c-3.5,4.6-6.9,9.2-10.4,13.2 c-3.5,4.6-6.9,8.6-10.4,13.2c-3.5,4.6-6.3,9.2-8.6,13.8l-3.5,6.9c-1.2,2.3-2.3,4.6-2.9,6.9c-1.7,4.6-3.5,8.6-4,12.7 c-1.2,4-1.7,8.1-1.7,10.4v8.6H134L134,246z"/></g>
</svg>